Coordinates
version=1
nRows=7
nColumns=33
inDegrees=yes

Units are S.I. units (second, meters, Newtons, ...)
Angles are in degrees.

endheader
time	ground_thorax_rot_x	ground_thorax_rot_y	ground_thorax_rot_z	ground_thorax_tx	ground_thorax_ty	ground_thorax_tz	clav_prot_r	clav_elev_r	scapula_abduction_r	scapula_elevation_r	scapula_upward_rot_r	scapula_winging_r	shoulder_elv_r	plane_of_elev_r	axial_rot_r	elbow_flexion_r	pro_sup_r	wrist_flex_r	wrist_dev_r	clav_prot_l	clav_elev_l	scapula_abduction_l	scapula_elevation_l	scapula_upward_rot_l	scapula_winging_l	shoulder_elv_l	plane_of_elev_l	axial_rot_l	elbow_flexion_l	pro_sup_l	wrist_flex_l	wrist_dev_l
     10.07000000	    -37.36919007	    -15.54745368	     25.12310910	   -256.13027237	    828.07135802	      6.66816523	      8.14274653	    -45.00000000	     36.66865290	    -45.00000000	    -44.35937706	   2055.46909170	  -1727.47221693	     33.81894052	     63.95259913	   2180.07200624	     92.17363870	     12.25490751	      1.84461773	     13.06051874	     36.81956577	    -34.20715225	    -45.00000000	    -45.00000000	  -2073.63157959	   2065.97617339	    136.46109196	    168.28865251	   1451.34979518	   -335.05546085	      1.84546536	    -18.81523158
     10.08000000	    -37.53645823	    -15.31837755	     24.95067639	   -254.93539137	    828.18117588	      6.63544127	      7.76735745	    -45.00000000	     36.37902146	    -45.00000000	    -44.00069096	   2055.69141037	  -1727.44792874	     33.83220549	     63.69868588	   2179.99818635	     91.99399461	     12.29944452	      1.79789343	     13.52006169	     37.00130731	    -34.60816316	    -45.00000000	    -45.00000000	  -2073.39646139	   2066.01732926	    136.15820598	    168.41269685	   1451.35508137	   -335.82322351	      2.02711258	    -18.94101043
     10.09000000	    -37.30606067	    -15.74874668	     25.20860843	   -253.64553203	    828.26918347	      6.60706981	      8.38095674	    -45.00000000	     36.88614213	    -45.00000000	    -43.90024481	   2055.44592287	  -1727.52265002	     34.03953305	     63.50721015	   2180.06014881	     91.85237540	     12.38212284	      1.70848087	     12.76053037	     36.64516650	    -34.29781511	    -45.00000000	    -45.00000000	  -2073.77722207	   2066.14533593	    136.41788098	    169.02370506	   1451.37195629	   -336.45467320	      2.10845903	    -18.97946582
     10.10000000	    -37.18310218	    -15.88116080	     25.38095433	   -252.25431301	    828.33149404	      6.58274096	      8.30913243	    -45.00000000	     37.04004237	    -45.00000000	    -43.64529938	   2055.52335970	  -1727.35390061	     33.96820473	     63.20457673	   2180.09790940	     91.70386284	     12.45844564	      1.62255942	     12.87305348	     36.75641593	    -34.33720260	    -45.00000000	    -45.00000000	  -2073.83187532	   2066.15537052	    136.33649227	    169.42652062	   1451.39556071	   -337.08693788	      2.24312804	    -19.06957890
     10.11000000	    -37.48026873	    -15.52551202	     25.08773814	   -250.76247105	    828.36528669	      6.56191349	      7.75444168	    -45.00000000	     36.60488890	    -45.00000000	    -43.12619154	   2055.84027237	  -1727.39430098	     33.94217452	     62.93331236	   2180.05186919	     91.44554566	     12.53062810	      1.55950018	     13.60785907	     37.02835161	    -34.92404276	    -45.00000000	    -45.00000000	  -2073.48233838	   2066.14737231	    135.90708919	    169.39234699	   1451.29523802	   -338.00348885	      2.48480279	    -19.18214195
     10.12000000	    -37.31038921	    -15.78436581	     25.28675086	   -249.16711030	    828.36996443	      6.54401256	      7.99344764	    -45.00000000	     36.84920904	    -45.00000000	    -42.89242635	   2055.82300656	  -1727.36523226	     34.03489388	     62.65897486	   2179.98630533	     91.19785053	     12.59859267	      1.49338844	     13.36450555	     36.93388947	    -34.72828603	    -45.00000000	    -45.00000000	  -2073.62477207	   2066.27446888	    135.79378739	    169.76637935	   1451.25002280	   -338.88335371	      2.68641559	    -19.25489051
     10.13000000	    -37.32458877	    -15.80700256	     25.30231319	   -247.46363977	    828.34334760	      6.52821862	      7.79065261	    -45.00000000	     36.84232819	    -45.00000000	    -42.47492068	   2055.95711862	  -1727.32359087	     34.02344641	     62.37045081	   2180.03001075	     90.87983871	     12.72157199	      1.39792475	     13.63657419	     37.06285353	    -34.99649069	    -45.00000000	    -45.00000000	  -2073.56696865	   2066.20541011	    135.70187131	    170.00391493	   1451.24088049	   -339.86202660	      2.88925207	    -19.34232031
